<svg width="518" height="559" viewBox="0 0 518 559" fill="none" xmlns="http://www.w3.org/2000/svg">
<path d="M412.344 62.1666V448.999C412.344 465.082 399.296 478.129 383.203 478.129H96.9376C80.8447 478.129 67.8074 465.082 67.8074 448.999V62.1666C67.8074 46.0745 80.8455 33.0364 96.9376 33.0364H383.203C399.296 33.0364 412.344 46.0754 412.344 62.1666Z" fill="#0A3862"/>
<path d="M412.344 62.1647V107.907H67.8093V62.1647C67.8093 46.0734 80.8466 33.0344 96.9396 33.0344H383.203C399.296 33.0344 412.344 46.0734 412.344 62.1647Z" fill="#FF8AE2"/>
<path d="M291.242 168.236H139.911C136.145 168.236 133.094 165.184 133.094 161.419C133.094 157.654 136.145 154.602 139.911 154.602H291.241C295.007 154.602 298.059 157.654 298.059 161.419C298.058 165.184 295.007 168.236 291.242 168.236Z" fill="#21639F"/>
<path d="M291.242 244.408H139.911C136.145 244.408 133.094 241.356 133.094 237.591C133.094 233.826 136.145 230.774 139.911 230.774H291.241C295.007 230.774 298.059 233.826 298.059 237.591C298.058 241.356 295.007 244.408 291.242 244.408Z" fill="#21639F"/>
<path d="M287.151 282.494H207.626C203.86 282.494 200.809 279.442 200.809 275.677C200.809 271.912 203.86 268.86 207.626 268.86H287.151C290.917 268.86 293.969 271.912 293.969 275.677C293.969 279.442 290.916 282.494 287.151 282.494Z" fill="#5999D2"/>
<path d="M184.901 282.494H139.911C136.145 282.494 133.094 279.442 133.094 275.677C133.094 271.912 136.145 268.86 139.911 268.86H184.901C188.667 268.86 191.718 271.912 191.718 275.677C191.718 279.442 188.667 282.494 184.901 282.494Z" fill="white"/>
<path d="M250.341 320.58H139.911C136.145 320.58 133.094 317.528 133.094 313.763C133.094 309.998 136.145 306.946 139.911 306.946H250.341C254.107 306.946 257.158 309.998 257.158 313.763C257.158 317.528 254.107 320.58 250.341 320.58Z" fill="#21639F"/>
<path d="M274.882 358.666H214.443C210.677 358.666 207.625 355.614 207.625 351.849C207.625 348.084 210.677 345.032 214.443 345.032H274.882C278.648 345.032 281.699 348.084 281.699 351.849C281.699 355.614 278.647 358.666 274.882 358.666Z" fill="#21639F"/>
<path d="M191.717 358.666H139.911C136.145 358.666 133.094 355.614 133.094 351.849C133.094 348.084 136.145 345.032 139.911 345.032H191.717C195.483 345.032 198.535 348.084 198.535 351.849C198.534 355.614 195.482 358.666 191.717 358.666Z" fill="white"/>
<path d="M229.891 396.752H139.911C136.145 396.752 133.094 393.7 133.094 389.934C133.094 386.169 136.145 383.117 139.911 383.117H229.891C233.657 383.117 236.708 386.169 236.708 389.934C236.708 393.7 233.657 396.752 229.891 396.752Z" fill="#5999D2"/>
<path d="M184.901 434.838H139.911C136.145 434.838 133.094 431.786 133.094 428.021C133.094 424.255 136.145 421.203 139.911 421.203H184.901C188.667 421.203 191.718 424.255 191.718 428.021C191.718 431.786 188.667 434.838 184.901 434.838Z" fill="#5999D2"/>
<path d="M173.994 206.322H139.911C136.145 206.322 133.094 203.27 133.094 199.505C133.094 195.74 136.145 192.688 139.911 192.688H173.994C177.76 192.688 180.811 195.74 180.811 199.505C180.811 203.27 177.76 206.322 173.994 206.322Z" fill="#5999D2"/>
<path d="M424.232 508.023C424.232 508.023 430.601 531.96 410.06 538.954C410.165 539.1 402.224 518.5 424.232 508.023Z" fill="#93C2DB"/>
<path d="M447.401 499.256C447.401 499.256 470.19 503.942 466.593 527.547C466.45 527.65 446.805 524.914 447.401 499.256Z" fill="#93C2DB"/>
<path d="M469.282 475.425C469.282 475.425 485.836 458.926 502.373 468.895C502.517 468.792 489.27 487.771 469.282 475.425Z" fill="#93C2DB"/>
<g clip-path="url(#clip0)">
<path d="M397.207 444.67C397.207 437.761 391.586 432.14 384.677 432.14C377.767 432.14 372.146 437.761 372.146 444.67C372.146 451.58 377.767 457.201 384.677 457.201C391.586 457.201 397.207 451.58 397.207 444.67ZM384.677 453.024C380.071 453.024 376.323 449.277 376.323 444.67C376.323 440.064 380.071 436.317 384.677 436.317C389.283 436.317 393.03 440.064 393.03 444.67C393.03 449.277 389.283 453.024 384.677 453.024Z" fill="#FF8AE2"/>
<path d="M362.957 444.67C362.957 437.761 357.336 432.14 350.427 432.14C343.517 432.14 337.896 437.761 337.896 444.67C337.896 451.58 343.517 457.201 350.427 457.201C357.336 457.201 362.957 451.58 362.957 444.67ZM350.427 453.024C345.82 453.024 342.073 449.277 342.073 444.67C342.073 440.064 345.82 436.317 350.427 436.317C355.033 436.317 358.78 440.064 358.78 444.67C358.78 449.277 355.033 453.024 350.427 453.024Z" fill="#FF8AE2"/>
<path d="M431.457 444.67C431.457 437.761 425.836 432.14 418.927 432.14C412.017 432.14 406.396 437.761 406.396 444.67C406.396 451.58 412.017 457.201 418.927 457.201C425.836 457.201 431.457 451.58 431.457 444.67ZM418.927 453.024C414.321 453.024 410.573 449.277 410.573 444.67C410.573 440.064 414.321 436.317 418.927 436.317C423.533 436.317 427.28 440.064 427.28 444.67C427.28 449.277 423.533 453.024 418.927 453.024Z" fill="#FF8AE2"/>
<path d="M418.927 457.201C411.431 457.201 404.95 461.539 401.802 467.532C398.661 461.554 392.197 457.201 384.677 457.201C377.181 457.201 370.7 461.539 367.552 467.532C364.411 461.554 357.947 457.201 350.427 457.201C340.015 457.201 331.213 465.624 331.213 475.997V485.603C331.213 486.757 332.148 487.692 333.302 487.692H436.052C437.205 487.692 438.14 486.757 438.14 485.603V475.997C438.14 465.625 429.339 457.201 418.927 457.201ZM384.677 461.378C392.827 461.378 399.713 468.072 399.713 475.997V483.515H369.64V475.997C369.64 468.072 376.526 461.378 384.677 461.378ZM335.39 475.997C335.39 468.072 342.276 461.378 350.427 461.378C358.577 461.378 365.463 468.072 365.463 475.997V483.515H335.39V475.997ZM433.963 483.515H403.89V475.997C403.89 468.072 410.776 461.378 418.927 461.378C427.077 461.378 433.963 468.072 433.963 475.997V483.515Z" fill="#FF8AE2"/>
<path d="M384.677 393.295C381.222 393.295 378.411 396.106 378.411 399.561C378.411 403.015 381.222 405.826 384.677 405.826C388.131 405.826 390.942 403.015 390.942 399.561C390.942 396.106 388.131 393.295 384.677 393.295ZM384.677 401.649C383.525 401.649 382.588 400.712 382.588 399.561C382.588 398.409 383.525 397.472 384.677 397.472C385.828 397.472 386.765 398.409 386.765 399.561C386.765 400.712 385.828 401.649 384.677 401.649Z" fill="#FF8AE2"/>
<path d="M361.704 399.561C361.704 403.015 364.515 405.826 367.969 405.826C371.424 405.826 374.235 403.015 374.235 399.561C374.235 396.106 371.424 393.295 367.969 393.295C364.515 393.295 361.704 396.106 361.704 399.561ZM370.058 399.561C370.058 400.712 369.121 401.649 367.969 401.649C366.818 401.649 365.881 400.712 365.881 399.561C365.881 398.409 366.818 397.472 367.969 397.472C369.121 397.472 370.058 398.409 370.058 399.561Z" fill="#FF8AE2"/>
<path d="M407.649 399.561C407.649 396.106 404.839 393.295 401.384 393.295C397.929 393.295 395.119 396.106 395.119 399.561C395.119 403.015 397.929 405.826 401.384 405.826C404.839 405.826 407.649 403.015 407.649 399.561ZM399.295 399.561C399.295 398.409 400.232 397.472 401.384 397.472C402.535 397.472 403.472 398.409 403.472 399.561C403.472 400.712 402.535 401.649 401.384 401.649C400.232 401.649 399.295 400.712 399.295 399.561Z" fill="#FF8AE2"/>
<path d="M384.677 384.942C385.83 384.942 386.765 384.007 386.765 382.853C386.765 381.7 385.83 380.765 384.677 380.765C383.523 380.765 382.588 381.7 382.588 382.853C382.588 384.007 383.523 384.942 384.677 384.942Z" fill="#FF8AE2"/>
<path d="M386.938 415.435L384.677 420.637L382.415 415.435C382.083 414.673 381.331 414.179 380.5 414.179H359.616C351.555 414.179 344.997 407.622 344.997 399.561C344.997 391.499 351.555 384.942 359.616 384.942H375.279C376.432 384.942 377.367 384.006 377.367 382.853C377.367 381.7 376.432 380.765 375.279 380.765H359.616C349.252 380.765 340.82 389.197 340.82 399.561C340.82 409.925 349.252 418.356 359.616 418.356H379.13L382.761 426.707C383.093 427.47 383.845 427.963 384.677 427.963C385.508 427.963 386.26 427.47 386.592 426.707L390.223 418.356H409.738C420.102 418.356 428.533 409.925 428.533 399.561C428.533 389.197 420.102 380.765 409.738 380.765H394.075C392.921 380.765 391.986 381.7 391.986 382.853C391.986 384.006 392.921 384.942 394.075 384.942H409.738C417.799 384.942 424.357 391.499 424.357 399.561C424.357 407.622 417.799 414.179 409.738 414.179H388.853C388.022 414.179 387.27 414.673 386.938 415.435Z" fill="#FF8AE2"/>
</g>
<path d="M59.0578 224.177C62.2995 221.223 62.5942 216.202 59.6471 212.953C58.763 212.067 57.8798 211.328 56.8479 210.885V195.673C62.4464 202.91 69.0767 206.011 74.0858 207.488C74.3805 208.817 74.9699 209.999 75.854 211.032C77.3266 212.657 79.2426 213.544 81.3047 213.691C83.3676 213.839 85.4305 213.101 87.0509 211.624C90.2918 208.67 90.5865 203.648 87.6404 200.399C86.1668 198.774 84.2517 197.888 82.1888 197.74C80.2737 197.593 78.5055 198.183 76.885 199.365C76.7373 199.513 76.5903 199.66 76.4434 199.808C75.854 200.399 75.2646 200.99 74.9699 201.728C70.5494 200.251 64.6562 197.002 59.9419 189.765C62.5942 186.811 62.7411 182.233 59.9419 179.131C57.1427 176.03 52.4283 175.586 49.1866 178.097C49.0397 178.245 48.8919 178.393 48.745 178.54C45.5041 181.494 45.2094 186.516 48.1555 189.765C49.0396 190.799 50.0707 191.39 51.2495 191.833V210.738C50.5132 211.032 49.776 211.328 49.1866 211.919C49.0397 212.067 48.8919 212.214 48.745 212.362C47.1245 213.839 46.2404 215.759 46.0926 217.826C45.9457 219.894 46.682 221.962 48.1555 223.586C50.8078 226.688 55.8169 226.984 59.0578 224.177ZM79.3896 202.91C80.1259 202.319 81.01 201.876 82.0419 202.023C83.0729 202.023 83.957 202.466 84.5464 203.205C85.8721 204.682 85.7243 207.045 84.2517 208.374C84.2517 208.374 84.1039 208.522 83.957 208.522C83.2198 209.113 82.4835 209.261 81.5994 209.261C80.5684 209.261 79.6843 208.817 79.0949 208.079C78.5055 207.34 78.0638 206.454 78.2107 205.42C78.2107 204.534 78.6532 203.648 79.3896 202.91ZM51.5442 181.789C53.0177 180.46 55.3744 180.608 56.701 182.085C58.0267 183.562 57.8798 185.925 56.4063 187.254L56.2586 187.402C54.785 188.583 52.5752 188.288 51.3973 186.959C49.9237 185.334 50.0707 183.119 51.5442 181.789ZM50.2185 217.974C50.2185 216.94 50.6601 216.054 51.3973 215.463C52.8699 214.134 55.2275 214.282 56.5532 215.759C57.8798 217.236 57.7321 219.599 56.2586 220.928L56.1116 221.076C54.6381 222.257 52.4283 221.962 51.2495 220.632C50.5132 219.894 50.0707 218.861 50.2185 217.974Z" fill="#93C2DB"/>
<path d="M415.395 127.379V121.82H417.575C419.547 121.82 421.104 123.364 421.104 125.32V140.453C418.924 141.174 417.367 143.233 417.367 145.704C417.367 147.248 417.99 148.586 418.924 149.616C419.962 150.645 421.312 151.263 422.973 151.263C426.087 151.263 428.578 148.792 428.578 145.704C428.578 143.439 427.125 141.483 425.153 140.556V125.32C425.153 123.261 424.322 121.408 422.869 119.967C421.415 118.526 419.547 117.702 417.471 117.702H415.291V112.143L407.714 119.658L415.395 127.379ZM423.076 143.233C423.803 143.233 424.426 143.542 424.945 143.954C425.36 144.365 425.671 145.086 425.671 145.704C425.671 146.424 425.36 147.042 424.945 147.454C424.426 147.968 423.803 148.174 423.18 148.174C421.727 148.174 420.585 147.042 420.585 145.601C420.481 144.365 421.623 143.233 423.076 143.233Z" fill="#93C2DB"/>
<path d="M406.844 145.656C406.844 143.371 405.393 141.398 403.423 140.464V124.681C405.393 123.85 406.844 121.877 406.844 119.489C406.844 116.374 404.356 113.882 401.246 113.882C398.135 113.882 395.647 116.374 395.647 119.489C395.647 120.943 396.165 122.396 397.202 123.435C397.824 124.058 398.55 124.473 399.276 124.784V140.36C397.099 141.087 395.543 143.164 395.543 145.656C395.543 147.213 396.165 148.563 397.099 149.601C398.135 150.64 399.483 151.263 401.142 151.263C404.356 151.263 406.844 148.667 406.844 145.656ZM401.246 122.085C400.52 122.085 399.898 121.773 399.484 121.358C398.965 120.839 398.757 120.216 398.757 119.593C398.757 118.139 399.898 116.997 401.349 116.997C402.075 116.997 402.697 117.308 403.216 117.724C403.631 118.139 403.942 118.866 403.942 119.489C403.838 120.943 402.697 122.085 401.246 122.085ZM401.246 148.148C399.794 148.148 398.654 147.005 398.654 145.552C398.654 144.825 398.965 144.202 399.38 143.787C399.898 143.267 400.52 143.06 401.142 143.06C401.868 143.06 402.49 143.371 403.009 143.787C403.423 144.202 403.734 144.929 403.734 145.552C403.838 147.005 402.697 148.148 401.246 148.148Z" fill="#93C2DB"/>
<path d="M10.1711 259.542C10.1711 258.951 10.3189 258.212 10.6144 257.621H0V262.2H10.6144C10.3189 261.461 10.1711 260.428 10.1711 259.542Z" fill="#93C2DB"/>
<path d="M24.9063 260.428C24.9063 261.019 24.7585 261.757 24.4629 262.348H35.0686V257.769H24.6106C24.9062 258.507 25.0453 259.394 24.9063 260.428Z" fill="#93C2DB"/>
<path d="M27.2619 259.984C27.2619 260.132 27.2619 260.428 27.2619 260.575C27.1142 263.234 25.9319 265.597 24.0194 267.221C22.1069 268.846 19.5945 269.732 17.0909 269.584C11.788 269.289 7.66739 264.711 7.96296 259.394C8.11074 256.736 9.28431 254.372 11.1968 252.748C13.118 250.975 15.6217 250.236 18.1253 250.384C23.2804 250.68 27.2619 254.815 27.2619 259.984ZM12.5269 259.984C12.5269 262.643 14.5872 264.859 17.3864 265.154C18.7165 265.302 20.0379 264.711 21.0724 263.825C22.1069 262.938 22.6893 261.609 22.8371 260.28C22.9849 257.474 20.9246 255.111 18.1253 254.815L18.2732 252.6L18.1253 254.815C16.7953 254.667 15.4739 255.259 14.4394 256.144C13.4136 257.03 12.8224 258.36 12.6746 259.69C12.5269 259.836 12.5269 259.836 12.5269 259.984Z" fill="#93C2DB"/>
<path d="M457.645 320.891C455.288 317.199 450.279 316.165 446.595 318.675C444.827 319.857 443.649 321.629 443.207 323.697C442.765 325.765 443.207 327.98 444.385 329.752C445.122 330.934 446.743 332.115 448.069 332.411V338.023C448.069 339.648 446.743 343.34 442.765 343.34H428.326V329.162C429.357 328.719 430.389 328.128 431.126 327.094C434.073 323.845 433.778 318.823 430.536 315.869C427.295 312.915 422.285 313.211 419.339 316.46C417.866 318.085 417.276 320.152 417.276 322.22C417.276 324.288 418.308 326.355 419.929 327.685C420.076 327.832 420.223 327.98 420.37 328.128C420.96 328.571 421.696 329.014 422.433 329.309V348.214C421.254 348.657 420.223 349.396 419.339 350.282C416.392 353.531 416.687 358.552 419.929 361.506C420.076 361.654 420.223 361.802 420.37 361.95C423.612 364.46 428.326 364.017 431.126 360.915C433.778 357.814 433.778 353.088 431.126 350.282C430.684 349.838 430.389 349.544 430.095 349.248H442.617C450.279 349.248 453.667 342.749 453.667 338.319V332.854C454.109 332.706 454.698 332.411 455.141 332.115C455.288 331.968 455.435 331.82 455.582 331.672C457.056 330.491 458.087 328.866 458.529 326.946C459.266 324.731 458.824 322.663 457.645 320.891ZM421.696 321.925C421.696 320.891 421.991 320.005 422.58 319.266C423.907 317.789 425.969 317.642 427.442 318.823C427.59 318.823 427.59 318.971 427.59 318.971C429.063 320.3 429.21 322.663 427.885 324.14C426.558 325.617 424.201 325.765 422.728 324.435C422.139 323.697 421.696 322.811 421.696 321.925ZM428.179 357.814C426.853 359.291 424.643 359.438 423.023 358.109C421.549 356.78 421.402 354.417 422.728 352.94C424.054 351.463 426.117 351.315 427.59 352.497C427.737 352.497 427.737 352.645 427.737 352.645C429.357 353.974 429.505 356.337 428.179 357.814ZM454.551 326.06C454.404 326.946 453.814 327.832 452.931 328.423C452.194 329.014 451.163 329.162 450.131 329.014C449.248 328.866 448.363 328.275 447.774 327.389C447.185 326.651 447.037 325.617 447.185 324.583C447.332 323.697 447.774 322.959 448.51 322.515C448.658 322.515 448.658 322.368 448.805 322.368C450.426 321.334 452.783 321.777 453.814 323.402C454.551 324.14 454.698 325.026 454.551 326.06Z" fill="#93C2DB"/>
<path d="M99.8533 10.3389V0H89.5405V10.3389H99.8533Z" fill="#93C2DB"/>
<path d="M51.1721 88.5774V78.2394H40.8584V88.5774H51.1721Z" fill="#9C4668"/>
<path d="M419.338 266.364V255.582H408.583V266.364H419.338Z" fill="#FF8AE2"/>
<path d="M464.543 198.556V187.774H453.788V198.556H464.543Z" fill="#9C4668"/>
<defs>
<clipPath id="clip0">
<rect width="106.927" height="106.927" fill="white" transform="translate(331.213 380.765)"/>
</clipPath>
</defs>
</svg>
